<svg width="24" height="24" viewBox="0 0 24 24" fill="none" xmlns="http://www.w3.org/2000/svg">
<path opacity="0.4" d="M16.1871 2H7.81291C4.17108 2 2 4.17108 2 7.81291V16.1871C2 19.8289 4.17108 22 7.81291 22H16.1871C19.8289 22 22 19.8289 22 16.1871V7.81291C22 4.17108 19.8289 2 16.1871 2Z" fill="#FFC100"/>
<path d="M15.5366 6.88231L13.3025 6.11072C12.7366 5.90766 12.161 5.98884 11.722 6.31374C11.283 6.63864 11.039 7.18694 11.039 7.80628V8.4256V12.6696C10.6488 12.4462 10.2097 12.3143 9.7317 12.3143C8.22926 12.3143 7 13.5936 7 15.1571C7 16.7207 8.22926 18 9.7317 18C11.2341 18 12.4634 16.7207 12.4634 15.1571V10.5375C12.4731 10.5476 12.4927 10.5476 12.5025 10.5577L14.7366 11.3294C14.9415 11.4005 15.1561 11.4411 15.361 11.4411C15.7122 11.4411 16.0439 11.3396 16.3171 11.1264C16.7561 10.8015 17 10.2532 17 9.63383V9.0145C17 8.09057 16.3756 7.17675 15.5366 6.88231ZM9.7317 16.5177C9.00974 16.5177 8.43418 15.9085 8.43418 15.1673C8.43418 14.416 9.0195 13.8068 9.7317 13.8068C10.4536 13.8068 11.039 14.416 11.039 15.1673C11.039 15.9085 10.4536 16.5177 9.7317 16.5177Z" fill="#FFC100"/>
</svg>
