<svg width="24" height="24" viewBox="0 0 24 24" fill="none" xmlns="http://www.w3.org/2000/svg">
<path opacity="0.4" d="M22 12C22 17.523 17.523 22 12 22C6.477 22 2 17.523 2 12C2 6.478 6.477 2 12 2C17.523 2 22 6.478 22 12" fill="#FFC100"/>
<path d="M15.9773 8.60877L14.308 13.878C14.2461 14.0942 14.071 14.2691 13.8546 14.3319L8.59926 15.9775C8.24891 16.0917 7.90886 15.7511 8.02221 15.4012L9.67093 10.1216C9.73276 9.90551 9.90794 9.74084 10.1243 9.6688L15.4002 8.02216C15.7609 7.90895 16.0907 8.24857 15.9773 8.60877Z" fill="#FFC100"/>
</svg>
