<svg width="24" height="24" viewBox="0 0 24 24" fill="none" xmlns="http://www.w3.org/2000/svg">
<path d="M20.6795 8.01001L14.24 2.77002C12.9815 1.75002 11.0153 1.74002 9.76668 2.76002L3.32712 8.01001C2.40297 8.76001 1.84258 10.26 2.03921 11.44L3.27797 18.98C3.56308 20.67 5.1066 22 6.78777 22H17.209C18.8705 22 20.4436 20.64 20.7287 18.97L21.9674 11.43C22.1444 10.26 21.584 8.76001 20.6795 8.01001ZM12.7358 18C12.7358 18.41 12.4015 18.75 11.9984 18.75C11.5953 18.75 11.2611 18.41 11.2611 18V15C11.2611 14.59 11.5953 14.25 11.9984 14.25C12.4015 14.25 12.7358 14.59 12.7358 15V18Z" fill="#FFC100"/>
</svg>
